# xmcd
# 
# Track frame offsets:
#     150
#     23695
#     42271
#     56403
#     88521
#     110848
#     133053
#     150922
#     187359
#     212668
#     225114
#     261957
#     279477
# 
# Disc length: 3970
# 
# Revision: 2
# Processed by: cddbd v1.5.2PL0 Copyright (c) Steve Scherf et al.
# Submitted via: fre:ac v1.0.27
# 
DISCID=ad0f800d
DTITLE=Paul Motian Trio 2000 and One - On Broadway, Vol. 4
DYEAR=2005
DGENRE=Jazz
TTITLE0=The Last Dance
TTITLE1=Tea for Two
TTITLE2=In a Shanty in Old Shanty Town
TTITLE3=Never Let Me Go
TTITLE4=Never Let Me Go
TTITLE5=Folks Who Live on the Hill
TTITLE6=Everything Happens to Me
TTITLE7=Last Night When We Were Young
TTITLE8=Born to Be Blue
TTITLE9=Brother, Can You Spare a Dime
TTITLE10=I Loves You Porgy
TTITLE11=You’re Getting to Be a Habit with Me
TTITLE12=How Long Has This Been Going On
EXTD=YEAR: 2005
EXTT0=
EXTT1=
EXTT2=
EXTT3=
EXTT4=
EXTT5=
EXTT6=
EXTT7=
EXTT8=
EXTT9=
EXTT10=
EXTT11=
EXTT12=
PLAYORDER=
